<?xml version="1.0" encoding="utf-8"?>
<!-- Svg Vector Icons : http://www.sfont.cn -->
<!DOCTYPE svg PUBLIC "-//W3C//DTD SVG 1.1//EN" "http://www.w3.org/Graphics/SVG/1.1/DTD/svg11.dtd">
<svg version="1.1" xmlns="http://www.w3.org/2000/svg" xmlns:xlink="http://www.w3.org/1999/xlink" x="0px" y="0px" viewBox="0 0 1000 1000" enable-background="new 0 0 1000 1000" xml:space="preserve">
<metadata> Svg Vector Icons : http://www.sfont.cn </metadata>
<g><path d="M179,908.7c0,44.7-28.4,81.3-63.2,81.3c-34.7,0-63.2-36.6-63.2-81.3V91.3c0-44.7,28.4-81.3,63.2-81.3c34.7,0,63.2,36.6,63.2,81.3V908.7z"/><path d="M891.5,439.7C838.3,450,628.1,523.4,591.2,515c-36.9-8.4,6.7-73.7-89.8-73.7c-125,0-242.1,42.4-242.1,42.4s-44.9,24.8-44.9-42.4s0-221.6,0-284.8c0-63.1,56.6-88.1,56.6-88.1s85.4-43.9,231-43.9c92.9,0.4,45.9,61.3,89.3,71.5c43.3,10.2,274.3-59,274.3-59c68.1-12.5,81.8-1.8,81.8,75c0,0,0,220.9,0,249.6C947.3,390.4,944.6,429.5,891.5,439.7z"/></g>
</svg>